<svg width="40" height="32" viewBox="0 0 40 32" fill="none" xmlns="http://www.w3.org/2000/svg">
  <!-- Bridge towers -->
  <line x1="10" y1="4" x2="10" y2="24" stroke="#3B6FB0" stroke-width="2"/>
  <line x1="30" y1="4" x2="30" y2="24" stroke="#3B6FB0" stroke-width="2"/>
  <!-- Main cables -->
  <path d="M2 18 Q10 4 20 4 Q30 4 38 18" stroke="#5B8FD9" stroke-width="1.5" fill="none"/>
  <!-- Deck -->
  <line x1="2" y1="22" x2="38" y2="22" stroke="#2E5A99" stroke-width="2.5"/>
  <!-- Vertical suspenders -->
  <line x1="6" y1="14" x2="6" y2="22" stroke="#5B8FD9" stroke-width="1.2"/>
  <line x1="14" y1="8" x2="14" y2="22" stroke="#5B8FD9" stroke-width="1.2"/>
  <line x1="20" y1="6" x2="20" y2="22" stroke="#5B8FD9" stroke-width="1.2"/>
  <line x1="26" y1="8" x2="26" y2="22" stroke="#5B8FD9" stroke-width="1.2"/>
  <line x1="34" y1="14" x2="34" y2="22" stroke="#5B8FD9" stroke-width="1.2"/>
  <!-- Tower tops -->
  <circle cx="10" cy="4" r="1.8" fill="#2E5A99"/>
  <circle cx="30" cy="4" r="1.8" fill="#2E5A99"/>
  <!-- Hummingbird -->
  <g transform="translate(18,1) scale(0.85)">
    <path d="M6 6 Q9 2 13 3 Q11 5 11 7 Q14 6 16 8 Q12 9 11 11 Q9 9 6 6Z" fill="#3FA66B"/>
    <path d="M6 6 Q3 4 1 5 Q3 6 4 7Z" fill="#E8743B"/>
    <circle cx="6.5" cy="6" r="0.6" fill="#1A1A2E"/>
  </g>
</svg>
